<svg width="112" height="32" viewBox="0 0 112 32" fill="none" xmlns="http://www.w3.org/2000/svg">
<g clip-path="url(#clip0_1481_11)">
<g clip-path="url(#clip1_1481_11)">
<path d="M16.4523 28.0987C11.4319 30.8588 5.63853 33.0182 2.89836 30.7399C0.148406 28.4878 0.461493 21.7719 0.701191 15.6533C0.962908 9.54252 1.17325 4.03684 3.61489 1.63809C6.06631 -0.786874 10.7808 -0.123299 15.2434 0.480546C19.7157 1.05818 23.9238 1.54206 26.3141 4.55701C28.7142 7.54575 29.2867 13.0918 27.4812 17.5268C25.6659 21.9882 21.4505 25.3307 16.4523 28.0987Z" fill="#F683AC"/>
</g>
<path d="M9.02808 6.89594H14.7281C16.3841 6.89594 17.8441 7.22394 19.1081 7.87994C20.3721 8.53594 21.3601 9.46794 22.0721 10.6759C22.7921 11.8759 23.1521 13.3079 23.1521 14.9719C23.1521 16.6119 22.7921 18.0359 22.0721 19.2439C21.3601 20.4439 20.3721 21.3719 19.1081 22.0279C17.8441 22.6759 16.3841 22.9999 14.7281 22.9999H9.02808V6.89594ZM12.8681 10.4239V19.4959H14.7281C15.6001 19.4959 16.3521 19.2999 16.9841 18.9079C17.6241 18.5079 18.1161 17.9679 18.4601 17.2879C18.8121 16.6079 18.9881 15.8359 18.9881 14.9719C18.9881 14.0759 18.8121 13.2879 18.4601 12.6079C18.1161 11.9279 17.6241 11.3959 16.9841 11.0119C16.3521 10.6199 15.6001 10.4239 14.7281 10.4239H12.8681Z" fill="#212429"/>
<path d="M29.4723 23.3839C28.4803 23.3839 27.5483 23.1279 26.6763 22.6159C25.8043 22.1039 25.0963 21.3719 24.5523 20.4199C24.0163 19.4679 23.7483 18.3399 23.7483 17.0359C23.7483 15.7319 24.0163 14.6159 24.5523 13.6879C25.0883 12.7519 25.7923 12.0359 26.6643 11.5399C27.5363 11.0439 28.4723 10.7959 29.4723 10.7959C30.4643 10.7959 31.3283 10.9959 32.0643 11.3959C32.8003 11.7879 33.3923 12.3199 33.8403 12.9919C34.2963 13.6639 34.5923 14.4239 34.7283 15.2719C34.8723 16.1119 34.8443 16.9799 34.6443 17.8759H26.7843V15.9319H31.8363L31.2843 16.2919C31.3083 16.0119 31.2963 15.7279 31.2483 15.4399C31.2083 15.1519 31.1243 14.8879 30.9963 14.6479C30.8683 14.3999 30.6843 14.2039 30.4443 14.0599C30.2123 13.9079 29.9123 13.8319 29.5443 13.8319C29.1363 13.8319 28.7803 13.9319 28.4763 14.1319C28.1803 14.3239 27.9483 14.6079 27.7803 14.9839C27.6203 15.3519 27.5403 15.8039 27.5403 16.3399V17.8519C27.5403 18.3559 27.6123 18.7919 27.7563 19.1599C27.9003 19.5279 28.1123 19.8159 28.3923 20.0239C28.6803 20.2239 29.0403 20.3239 29.4723 20.3239C29.8243 20.3239 30.1323 20.2519 30.3963 20.1079C30.6603 19.9639 30.8443 19.7359 30.9483 19.4239H34.7643C34.6443 20.1599 34.3483 20.8279 33.8763 21.4279C33.4123 22.0279 32.8043 22.5039 32.0523 22.8559C31.3083 23.2079 30.4483 23.3839 29.4723 23.3839Z" fill="#212429"/>
<path d="M41.0248 23.3839C39.8968 23.3839 38.9008 23.2359 38.0368 22.9399C37.1728 22.6359 36.4968 22.1839 36.0088 21.5839C35.5288 20.9759 35.2928 20.2119 35.3008 19.2919H38.7688C38.7848 19.7079 38.9448 19.9959 39.2488 20.1559C39.5608 20.3159 39.9808 20.3959 40.5088 20.3959C40.8288 20.3959 41.0928 20.3559 41.3008 20.2759C41.5088 20.1959 41.6648 20.0919 41.7688 19.9639C41.8728 19.8279 41.9248 19.6839 41.9248 19.5319C41.9248 19.3319 41.8528 19.1719 41.7088 19.0519C41.5648 18.9319 41.3408 18.8119 41.0368 18.6919L38.1688 17.5759C37.3208 17.2239 36.6648 16.7799 36.2008 16.2439C35.7448 15.6999 35.5168 15.0559 35.5168 14.3119C35.5168 13.2639 36.0008 12.4159 36.9688 11.7679C37.9368 11.1199 39.2608 10.7959 40.9408 10.7959C42.5168 10.7959 43.7288 11.1639 44.5768 11.8999C45.4248 12.6359 45.8528 13.5719 45.8608 14.7079H42.3448C42.3448 14.4519 42.2368 14.2319 42.0208 14.0479C41.8048 13.8559 41.4448 13.7599 40.9408 13.7599C40.5248 13.7599 40.1968 13.8279 39.9568 13.9639C39.7168 14.0999 39.5968 14.2799 39.5968 14.5039C39.5968 14.8079 39.8488 15.0479 40.3528 15.2239L43.6168 16.5319C44.4248 16.8519 45.0608 17.2519 45.5248 17.7319C45.9888 18.2119 46.2208 18.8119 46.2208 19.5319C46.2208 20.1879 45.9928 20.8119 45.5368 21.4039C45.0888 21.9879 44.4728 22.4639 43.6888 22.8319C42.9048 23.1999 42.0168 23.3839 41.0248 23.3839Z" fill="#212429"/>
<path d="M50.0079 9.65594C49.2799 9.65594 48.7159 9.47194 48.3159 9.10394C47.9239 8.72794 47.7279 8.19994 47.7279 7.51994C47.7279 6.85594 47.9239 6.32794 48.3159 5.93594C48.7159 5.53594 49.2799 5.33594 50.0079 5.33594C50.7119 5.33594 51.2679 5.53594 51.6759 5.93594C52.0839 6.32794 52.2879 6.85594 52.2879 7.51994C52.2879 8.19994 52.0839 8.72794 51.6759 9.10394C51.2679 9.47194 50.7119 9.65594 50.0079 9.65594ZM48.0879 22.9999V11.1079H51.9279V22.9999H48.0879Z" fill="#212429"/>
<path d="M59.8449 29.1559C58.3409 29.1559 57.0689 28.9519 56.0289 28.5439C54.9969 28.1439 54.2129 27.6199 53.6769 26.9719C53.1489 26.3319 52.8849 25.6519 52.8849 24.9319C52.8849 24.1719 53.1569 23.5759 53.7009 23.1439C54.2449 22.7119 54.9089 22.4959 55.6929 22.4959L58.8489 23.3959C58.1529 23.3959 57.6169 23.5079 57.2409 23.7319C56.8649 23.9639 56.6769 24.2919 56.6769 24.7159C56.6769 25.1959 56.9729 25.5479 57.5649 25.7719C58.1649 25.9959 58.9249 26.1079 59.8449 26.1079C60.4929 26.1079 61.0449 26.0039 61.5009 25.7959C61.9569 25.5959 62.3009 25.3359 62.5329 25.0159C62.7729 24.6959 62.8929 24.3639 62.8929 24.0199C62.8929 23.8119 62.8329 23.6559 62.7129 23.5519C62.6009 23.4479 62.4209 23.3959 62.1729 23.3959H58.8489C58.0569 23.3959 57.2969 23.2599 56.5689 22.9879C55.8409 22.7159 55.2449 22.3439 54.7809 21.8719C54.3249 21.3919 54.0969 20.8519 54.0969 20.2519C54.0969 19.7559 54.2329 19.3199 54.5049 18.9439C54.7769 18.5679 55.1609 18.2759 55.6569 18.0679C56.1609 17.8599 56.7449 17.7559 57.4089 17.7559L58.5129 18.9439C58.2889 18.9439 58.0849 18.9799 57.9009 19.0519C57.7249 19.1239 57.5849 19.2319 57.4809 19.3759C57.3769 19.5119 57.3249 19.6839 57.3249 19.8919C57.3249 20.1639 57.4449 20.3759 57.6849 20.5279C57.9249 20.6719 58.3129 20.7439 58.8489 20.7439H62.1729C63.5809 20.7439 64.6849 20.9719 65.4849 21.4279C66.2849 21.8759 66.6849 22.6439 66.6849 23.7319C66.6849 24.6599 66.4009 25.5359 65.8329 26.3599C65.2649 27.1919 64.4689 27.8639 63.4449 28.3759C62.4209 28.8959 61.2209 29.1559 59.8449 29.1559ZM59.7849 19.1479C58.8249 19.1479 57.9329 18.9799 57.1089 18.6439C56.2929 18.2999 55.6329 17.8199 55.1289 17.2039C54.6249 16.5799 54.3729 15.8439 54.3729 14.9959C54.3729 14.1239 54.6249 13.3759 55.1289 12.7519C55.6329 12.1199 56.2929 11.6359 57.1089 11.2999C57.9329 10.9639 58.8249 10.7959 59.7849 10.7959C60.7289 10.7959 61.6129 10.9639 62.4369 11.2999C63.2609 11.6359 63.9289 12.1199 64.4409 12.7519C64.9529 13.3759 65.2089 14.1239 65.2089 14.9959C65.2089 15.8439 64.9529 16.5799 64.4409 17.2039C63.9289 17.8199 63.2609 18.2999 62.4369 18.6439C61.6129 18.9799 60.7289 19.1479 59.7849 19.1479ZM59.8329 16.5199C60.4169 16.5199 60.8289 16.3719 61.0689 16.0759C61.3169 15.7799 61.4409 15.4199 61.4409 14.9959C61.4409 14.4999 61.3169 14.1119 61.0689 13.8319C60.8209 13.5439 60.3929 13.3999 59.7849 13.3999C59.2329 13.3999 58.8249 13.5439 58.5609 13.8319C58.2969 14.1119 58.1649 14.4999 58.1649 14.9959C58.1649 15.4199 58.2969 15.7799 58.5609 16.0759C58.8329 16.3719 59.2569 16.5199 59.8329 16.5199ZM64.2969 12.7159L62.5689 11.5759C62.5689 10.8479 62.7609 10.2159 63.1449 9.67994C63.5289 9.14394 64.0209 8.72794 64.6209 8.43194C65.2209 8.13594 65.8369 7.98794 66.4689 7.98794L66.3249 11.6119C65.6609 11.6119 65.1569 11.7039 64.8129 11.8879C64.4689 12.0639 64.2969 12.3399 64.2969 12.7159Z" fill="#212429"/>
<path d="M75.699 22.9999V16.1119C75.699 15.4879 75.547 15.0279 75.243 14.7319C74.939 14.4279 74.571 14.2759 74.139 14.2759C73.699 14.2759 73.2949 14.3999 72.9269 14.6479C72.5589 14.8959 72.2629 15.2959 72.0389 15.8479C71.8229 16.3919 71.715 17.1159 71.715 18.0199H70.5509C70.5509 16.3239 70.7509 14.9439 71.1509 13.8799C71.5589 12.8159 72.111 12.0359 72.807 11.5399C73.511 11.0439 74.307 10.7959 75.195 10.7959C76.211 10.7959 77.039 11.0239 77.679 11.4799C78.327 11.9359 78.8029 12.5639 79.1069 13.3639C79.4109 14.1639 79.563 15.0799 79.563 16.1119V22.9999H75.699ZM67.875 22.9999V11.1799H71.2589L71.715 13.1359V22.9999H67.875Z" fill="#212429"/>
<path d="M84.1723 9.65594C83.4443 9.65594 82.8803 9.47194 82.4803 9.10394C82.0883 8.72794 81.8923 8.19994 81.8923 7.51994C81.8923 6.85594 82.0883 6.32794 82.4803 5.93594C82.8803 5.53594 83.4443 5.33594 84.1723 5.33594C84.8763 5.33594 85.4323 5.53594 85.8403 5.93594C86.2483 6.32794 86.4523 6.85594 86.4523 7.51994C86.4523 8.19994 86.2483 8.72794 85.8403 9.10394C85.4323 9.47194 84.8763 9.65594 84.1723 9.65594ZM82.2523 22.9999V11.1079H86.0923V22.9999H82.2523Z" fill="#212429"/>
<path d="M93.7933 23.3839C92.8013 23.3839 91.8693 23.1279 90.9973 22.6159C90.1253 22.1039 89.4173 21.3719 88.8733 20.4199C88.3373 19.4679 88.0693 18.3399 88.0693 17.0359C88.0693 15.7319 88.3373 14.6159 88.8733 13.6879C89.4093 12.7519 90.1133 12.0359 90.9853 11.5399C91.8573 11.0439 92.7933 10.7959 93.7933 10.7959C94.7853 10.7959 95.6493 10.9959 96.3853 11.3959C97.1213 11.7879 97.7133 12.3199 98.1613 12.9919C98.6173 13.6639 98.9133 14.4239 99.0493 15.2719C99.1933 16.1119 99.1653 16.9799 98.9653 17.8759H91.1053V15.9319H96.1573L95.6053 16.2919C95.6293 16.0119 95.6173 15.7279 95.5693 15.4399C95.5293 15.1519 95.4453 14.8879 95.3173 14.6479C95.1893 14.3999 95.0053 14.2039 94.7653 14.0599C94.5333 13.9079 94.2333 13.8319 93.8653 13.8319C93.4573 13.8319 93.1013 13.9319 92.7973 14.1319C92.5013 14.3239 92.2693 14.6079 92.1013 14.9839C91.9413 15.3519 91.8613 15.8039 91.8613 16.3399V17.8519C91.8613 18.3559 91.9333 18.7919 92.0773 19.1599C92.2213 19.5279 92.4333 19.8159 92.7133 20.0239C93.0013 20.2239 93.3613 20.3239 93.7933 20.3239C94.1453 20.3239 94.4533 20.2519 94.7173 20.1079C94.9813 19.9639 95.1653 19.7359 95.2693 19.4239H99.0853C98.9653 20.1599 98.6693 20.8279 98.1973 21.4279C97.7333 22.0279 97.1253 22.5039 96.3733 22.8559C95.6293 23.2079 94.7693 23.3839 93.7933 23.3839Z" fill="#212429"/>
<path d="M100.774 22.9999V11.1079H104.614V22.9999H100.774ZM103.798 17.9599C103.798 16.3519 104.002 15.0319 104.41 13.9999C104.818 12.9679 105.334 12.2039 105.958 11.7079C106.582 11.2119 107.218 10.9639 107.866 10.9639C107.994 10.9639 108.122 10.9719 108.25 10.9879C108.378 10.9959 108.498 11.0119 108.61 11.0359L108.646 14.8999C108.446 14.8759 108.242 14.8599 108.034 14.8519C107.826 14.8359 107.63 14.8279 107.446 14.8279C106.886 14.8279 106.39 14.9319 105.958 15.1399C105.534 15.3479 105.202 15.6799 104.962 16.1359C104.73 16.5919 104.614 17.1999 104.614 17.9599H103.798Z" fill="#212429"/>
</g>
<defs>
<clipPath id="clip0_1481_11">
<rect width="112" height="32" fill="white"/>
</clipPath>
<clipPath id="clip1_1481_11">
<rect width="30" height="32" fill="white"/>
</clipPath>
</defs>
</svg>
