<svg width="209" height="146" viewBox="0 0 209 146" fill="none" xmlns="http://www.w3.org/2000/svg">
<path d="M42.2941 57.3365L43.1186 51.1751C43.1377 51.0165 43.2677 50.9055 43.4326 50.9055H50.9703C51.2081 50.9055 51.4142 51.1307 51.3857 51.3622L50.5612 57.5236C50.5422 57.6822 50.4121 57.7932 50.2472 57.7932H42.7127C42.4749 57.7932 42.2688 57.568 42.2973 57.3365M38.0417 89.9829L41.828 60.9294C41.8502 60.7708 41.977 60.6598 42.1419 60.6598H49.6796C49.9175 60.6598 50.1236 60.885 50.095 61.1165L46.3088 90.1668C46.2866 90.3254 46.1597 90.4364 45.9948 90.4364H38.4571C38.2193 90.4364 38.0132 90.2112 38.0417 89.9797" fill="#18AA52"/>
<path d="M50.9226 89.9829L55.9741 51.1814C55.9963 51.0229 56.1232 50.9119 56.2881 50.9119H63.8257C64.0636 50.9119 64.2697 51.137 64.2412 51.3685L59.1896 90.17C59.1674 90.3286 59.0406 90.4396 58.8757 90.4396H51.338C51.1002 90.4396 50.894 90.2144 50.9226 89.9829Z" fill="#18AA52"/>
<path d="M110.526 67.4143C106.073 67.4143 103.543 70.0875 102.791 75.5925C102.373 78.6463 102.763 80.847 103.952 82.1313C104.846 83.0985 106.248 83.5868 108.119 83.5868C112.533 83.5868 115.048 80.9104 115.802 75.4086C116.221 72.3453 115.834 70.1414 114.645 68.8571C113.76 67.8994 112.374 67.4143 110.526 67.4143ZM107.374 90.4396C102.779 90.4396 99.2555 89.057 96.9089 86.3298C94.5718 83.5773 93.6966 79.902 94.3118 75.4054C94.927 70.9056 96.763 67.2684 99.7661 64.5952C102.813 61.8807 106.685 60.5045 111.277 60.5045C115.869 60.5045 119.414 61.9061 121.691 64.6744C123.955 67.3857 124.792 71.061 124.174 75.5893C123.562 80.0511 121.729 83.6883 118.723 86.3996C115.752 89.0792 111.934 90.4396 107.377 90.4396" fill="#18AA52"/>
<path d="M207.954 61.8014C208.179 61.8268 208.353 62.0424 208.325 62.2581L207.516 68.4797C207.481 68.7588 207.231 68.9332 206.942 68.8856L206.91 68.8793C206.229 68.7747 205.769 68.762 205.119 68.762C200.958 68.762 198.466 70.6044 197.698 74.4572V74.489L195.65 90.1161C195.628 90.2747 195.501 90.3856 195.336 90.3856H187.871C187.633 90.3856 187.427 90.1605 187.456 89.929L188.648 80.7075L189.45 74.489L191.201 60.9294C191.223 60.7708 191.35 60.6598 191.515 60.6598H199.024C199.262 60.6598 199.468 60.885 199.439 61.1165L199.024 64.3002L198.777 64.2463C198.764 64.3415 198.688 64.0275 198.678 64.1068C198.821 63.9768 198.96 63.8531 199.097 63.7358C200.429 62.572 202.128 61.8585 203.999 61.7221C204.513 61.6841 205.039 61.6651 205.572 61.6651C206.4 61.6651 207.193 61.7095 207.951 61.8014" fill="#18AA52"/>
<path d="M153.939 71.432L151.497 90.1732C151.475 90.3317 151.348 90.4427 151.183 90.4427H143.645C143.407 90.4427 143.201 90.2176 143.23 89.9861L145.522 72.3643C145.751 70.6107 145.51 69.3296 144.803 68.5495C144.191 67.8772 143.185 67.5348 141.815 67.5348C140.258 67.5348 138.879 67.9977 137.712 68.911C136.551 69.8179 135.863 71.042 135.667 72.5546L133.374 90.1732C133.352 90.3317 133.225 90.4427 133.06 90.4427H125.576C125.338 90.4427 125.132 90.2176 125.161 89.9861L128.944 60.9325C128.966 60.774 129.093 60.663 129.258 60.663H136.742C136.983 60.663 137.186 60.8881 137.157 61.1196C137.106 61.497 137.033 62.0519 136.97 62.5466C136.926 62.8796 137.344 63.1396 137.588 62.9335C138.175 62.442 138.857 62.017 139.627 61.6619C141.102 61.0404 142.697 60.7264 144.375 60.7264C147.546 60.7264 150.057 61.7253 151.849 63.6977C153.64 65.667 154.341 68.2704 153.929 71.4352" fill="#18AA52"/>
<path d="M166.109 72.4563C165.833 72.4563 165.615 72.1614 165.716 71.9204C166.959 68.8983 169.211 67.4174 172.521 67.4174C174.367 67.4174 175.753 67.9026 176.641 68.8603C177.344 69.6213 177.766 70.7059 177.906 72.1043C177.925 72.3009 177.788 72.4563 177.592 72.4563H166.112H166.109ZM183.68 64.6776C181.407 61.9124 177.903 60.5076 173.266 60.5076C168.63 60.5076 164.803 61.8839 161.755 64.5983C158.752 67.2716 156.919 70.9088 156.304 75.4086C155.689 79.9052 156.561 83.5773 158.901 86.333C161.251 89.0601 164.771 90.4396 169.369 90.4396C173.967 90.4396 177.741 89.0823 180.712 86.3996C182.253 85.0107 183.487 83.3775 184.407 81.5161C184.527 81.2719 184.308 80.9548 184.023 80.9548H175.99C175.889 80.9548 175.797 80.9992 175.74 81.0753C174.437 82.7592 172.569 83.5837 170.114 83.5837C168.243 83.5837 166.842 83.0922 165.948 82.125C165.098 81.2085 164.657 79.8259 164.625 77.9994C164.625 77.8186 164.762 77.6854 164.942 77.6854H185.523C185.675 77.6854 185.799 77.5903 185.83 77.4476C185.967 76.8451 186.078 76.2267 186.166 75.5893C186.316 74.4921 186.382 73.4457 186.36 72.4531C186.296 69.3391 185.402 66.7293 183.687 64.6744" fill="#18AA52"/>
<path d="M86.0015 60.663C85.8366 60.663 85.7098 60.774 85.6876 60.9325L83.3949 78.5543C83.1983 80.0637 82.5102 81.291 81.3495 82.1947C80.1826 83.108 78.8032 83.571 77.2493 83.571C75.8762 83.571 74.871 83.2285 74.259 82.5562C73.5518 81.7761 73.3108 80.4918 73.5391 78.7414L75.8318 61.1196C75.8604 60.8881 75.6574 60.663 75.4164 60.663H67.8787C67.7138 60.663 67.587 60.774 67.5648 60.9325L65.1231 79.6737C64.7108 82.8353 65.4116 85.4387 67.2033 87.4112C68.995 89.3836 71.5096 90.3825 74.6776 90.3825C76.3551 90.3825 77.9501 90.0685 79.4247 89.447C80.1984 89.0918 80.8802 88.6669 81.4637 88.1754C81.711 87.9693 82.1265 88.2293 82.0821 88.5623L81.8633 90.2461C81.6381 91.9807 80.9119 93.4457 79.7069 94.6032C78.5082 95.7511 77.0495 96.3314 75.3657 96.3314C73.926 96.3314 72.8827 95.8494 72.1756 94.8537C71.8331 94.3907 71.5953 93.8612 71.4589 93.2713C71.4177 93.0842 71.2401 92.9415 71.053 92.9415H63.6961C63.5121 92.9415 63.3758 93.0779 63.379 93.2587C63.4424 95.9795 64.4349 98.2658 66.0902 100.067C68.2276 102.391 71.2401 103.571 75.0454 103.571C78.8507 103.571 82.155 102.436 84.9804 100.191C87.8122 97.9455 89.4961 94.914 89.9813 91.1816L93.8944 61.1228C93.9261 60.8913 93.72 60.6662 93.479 60.6662H85.9952L86.0015 60.663Z" fill="#18AA52"/>
<path d="M159.414 99.2393C159.272 99.2393 159.145 99.3218 159.085 99.4518C148.975 121.653 126.575 137.09 100.565 137.09C74.5559 137.09 52.1553 121.653 42.0459 99.4518C41.9888 99.3218 41.8588 99.2393 41.7161 99.2393H33.4142C33.1573 99.2393 32.9797 99.4994 33.0749 99.7372C43.7741 126.723 70.1322 145.81 100.955 145.81C131.778 145.81 158.136 126.723 168.836 99.7372C168.931 99.4994 168.753 99.2393 168.496 99.2393H159.414Z" fill="#18AA52"/>
<path d="M46.2913 38.2243C46.415 38.2243 46.5292 38.1609 46.5958 38.0594C58.0434 20.4028 77.9388 8.7205 100.565 8.7205C128.229 8.7205 151.809 26.1837 160.863 50.6772C160.917 50.8199 161.05 50.9151 161.202 50.9151H170.059C170.306 50.9151 170.481 50.6741 170.405 50.4394C160.923 21.167 133.417 0 100.958 0C73.4359 0 49.4751 15.2149 37.0413 37.6853C36.9081 37.9263 37.0857 38.2243 37.3615 38.2243H46.2945H46.2913Z" fill="#18AA52"/>
<path d="M15.1517 92.9257C15.4244 92.9257 15.6369 93.1667 15.602 93.4394L14.5365 101.576C14.5143 101.748 14.3779 101.862 14.2035 101.862H8.46069C8.20383 101.862 7.98503 101.624 8.01674 101.38L9.05686 93.4489C9.09491 93.1508 9.3486 92.9289 9.64985 92.9289H15.1517V92.9257Z" fill="#18AA52"/>
<path d="M22.138 39.5403C22.4107 39.5403 22.6232 39.7813 22.5883 40.0509L21.5228 48.1879C21.5038 48.3592 21.3643 48.4733 21.1899 48.4733H15.447C15.1902 48.4733 14.9714 48.2355 15.0031 47.9913L16.0432 40.0604C16.0812 39.7623 16.3349 39.5403 16.6362 39.5403H22.138Z" fill="#18AA52"/>
<path d="M23.8404 92.9257C24.1131 92.9257 24.3256 93.1667 24.2907 93.4394L23.2221 101.573C23.1967 101.744 23.0603 101.859 22.8859 101.859H17.1431C16.8894 101.859 16.6706 101.621 16.7023 101.377L17.7392 93.4457C17.7773 93.1477 18.031 92.9257 18.3322 92.9257H23.8436H23.8404Z" fill="#18AA52"/>
<path d="M30.8267 39.5403C31.0995 39.5403 31.3119 39.7813 31.277 40.0541L30.2084 48.1879C30.183 48.3592 30.0467 48.4733 29.8722 48.4733H24.1294C23.8757 48.4733 23.6569 48.2355 23.6886 47.9913L24.7256 40.0604C24.7636 39.7623 25.0173 39.5403 25.3186 39.5403H30.8299H30.8267Z" fill="#18AA52"/>
<path d="M22.1317 66.0412C25.5375 66.0412 27.3609 64.7569 27.7097 62.1122C27.9126 60.5805 27.5606 59.5658 26.6347 59.0077C25.8673 58.5859 24.5893 58.3671 22.8516 58.3671H13.9313C13.7664 58.3671 13.6364 58.4781 13.6142 58.6367L12.6977 65.5845C12.666 65.816 12.8753 66.0412 13.1163 66.0412H22.1349H22.1317ZM20.3337 82.997C21.9161 82.997 23.3463 82.5118 24.583 81.5573C25.8451 80.5743 26.5903 79.2836 26.7996 77.7203C26.9962 76.2109 26.6061 75.1359 25.6073 74.4414C24.5893 73.7057 23.3463 73.3347 21.9129 73.3347H11.9557C11.7908 73.3347 11.6608 73.4457 11.6386 73.6042L10.4621 82.5435C10.4336 82.775 10.6397 83.0002 10.8807 83.0002H20.3337V82.997ZM1.25327 90.3381C1.01226 90.3381 0.806141 90.1129 0.834681 89.8814L5.9338 51.1814C5.956 51.0229 6.08601 50.9119 6.25091 50.9119C6.25091 50.9119 27.4084 50.8802 28.29 50.9341C31.905 51.4827 34.3658 53.3758 35.6184 56.233C36.3921 58.05 36.6522 59.9812 36.389 61.9727C35.964 65.2135 34.4197 67.5379 31.7941 68.9015C31.5594 69.022 31.5752 69.3645 31.8258 69.523C33.0371 70.2778 33.9821 71.3369 34.6417 72.6878C35.4376 74.4065 35.6913 76.3758 35.4059 78.5511C34.8605 82.6831 32.9103 85.8002 29.6028 87.8139C27.7509 88.9333 25.5248 89.9607 22.9689 90.3349C19.579 90.633 1.25009 90.3349 1.25009 90.3349" fill="#18AA52"/>
</svg>
