<svg width="241" height="215" viewBox="0 0 241 215" fill="none" xmlns="http://www.w3.org/2000/svg">
<path d="M14.822 171.385C-5.59626 148.624 -19.2727 124.319 -27.9408 98.2777C-36.6089 72.2368 -40.2688 44.4597 -28.7113 25.3631C-17.1538 6.45925 9.62115 -3.76422 31.9657 -10.5156C54.1176 -17.2669 72.0317 -20.5462 90.7164 -21.7035C109.401 -22.668 128.664 -21.5106 151.586 -14.7593C174.316 -8.20082 200.32 3.75873 218.427 26.1347C236.726 48.5106 246.935 81.4958 237.304 106.958C227.673 132.613 198.201 150.553 170.271 170.999C142.533 191.446 116.143 214.401 89.368 214.98C62.5931 215.751 35.4329 194.34 14.822 171.385Z" fill="#339AF0" fill-opacity="0.1"/>
</svg>
