<svg width="126" height="149" viewBox="0 0 126 149" fill="none" xmlns="http://www.w3.org/2000/svg">
<g clip-path="url(#clip0_2004_551)">
<path d="M71.5141 131.72C48.8123 144.49 22.611 154.475 10.2073 143.912C-2.2405 133.47 -0.846528 102.359 0.217436 74.0141C1.38104 45.706 2.31427 20.2009 13.3518 9.09635C24.4336 -2.12962 45.7635 0.959784 65.9532 3.77167C86.1872 6.46216 105.225 8.71748 116.049 22.6924C126.917 36.5458 129.525 62.2403 121.372 82.7805C113.175 103.442 94.1163 118.913 71.5141 131.72Z" fill="#F683AC"/>
<path d="M65.3795 103.745C51.6525 111.467 35.8095 117.504 28.3094 111.117C20.7826 104.803 21.6255 85.9908 22.2689 68.8519C22.9724 51.7349 23.5367 36.3128 30.2108 29.5983C36.9115 22.8103 49.809 24.6783 62.0171 26.3786C74.2518 28.0054 85.7637 29.3692 92.3082 37.8193C98.8795 46.196 100.457 61.7326 95.527 74.1526C90.5704 86.646 79.0463 96.0009 65.3795 103.745Z" fill="#212429"/>
<path d="M60.1014 85.7051C53.4173 89.4651 45.7029 92.4049 42.0509 89.2947C38.3859 86.2203 38.7963 77.0603 39.1096 68.7148C39.4522 60.3801 39.7269 52.8707 42.9767 49.6012C46.2395 46.2959 52.5197 47.2055 58.4641 48.0334C64.4216 48.8256 70.027 49.4896 73.2137 53.6042C76.4135 57.6831 77.1815 65.2483 74.781 71.2959C72.3675 77.3793 66.7561 81.9345 60.1014 85.7051Z" fill="#F683AC"/>
</g>
<defs>
<clipPath id="clip0_2004_551">
<rect width="126" height="149" fill="white"/>
</clipPath>
</defs>
</svg>
