<svg width="175" height="193" viewBox="0 0 175 193" fill="none" xmlns="http://www.w3.org/2000/svg">
<path d="M104.514 150.249C81.8123 163.02 55.611 173.004 43.2073 162.441C30.7595 151.999 32.1535 120.888 33.2174 92.5432C34.381 64.2351 35.3143 38.73 46.3518 27.6254C57.4336 16.3994 78.7635 19.4888 98.9532 22.3007C119.187 24.9912 138.225 27.2465 149.049 41.2214C159.917 55.0749 162.525 80.7693 154.372 101.31C146.175 121.971 127.116 137.442 104.514 150.249Z" fill="#F683AC"/>
<path d="M61 44H89.5C97.78 44 105.08 45.64 111.4 48.92C117.72 52.2 122.66 56.86 126.22 62.9C129.82 68.9 131.62 76.06 131.62 84.38C131.62 92.58 129.82 99.7 126.22 105.74C122.66 111.74 117.72 116.38 111.4 119.66C105.08 122.9 97.78 124.52 89.5 124.52H61V44ZM80.2 61.64V107H89.5C93.86 107 97.62 106.02 100.78 104.06C103.98 102.06 106.44 99.36 108.16 95.96C109.92 92.56 110.8 88.7 110.8 84.38C110.8 79.9 109.92 75.96 108.16 72.56C106.44 69.16 103.98 66.5 100.78 64.58C97.62 62.62 93.86 61.64 89.5 61.64H80.2Z" fill="#212429"/>
</svg>
