<svg width="136" height="149" viewBox="0 0 136 149" fill="none" xmlns="http://www.w3.org/2000/svg">
<path fill-rule="evenodd" clip-rule="evenodd" d="M33.4482 125.341C43.0503 133.519 63.3336 125.789 80.9079 115.903C98.405 105.989 113.159 94.0124 119.505 78.0176C125.816 62.1167 123.797 42.2257 115.384 31.5013C107.182 20.9115 92.8868 19.0148 77.5948 16.9858C77.2646 16.942 76.934 16.8982 76.603 16.8542L76.175 16.7945C60.6728 14.6347 44.383 12.3651 35.8825 20.9762C27.429 29.4809 26.6318 48.8972 25.7435 70.531L25.7147 71.2312C25.7007 71.604 25.6867 71.9775 25.6726 72.3514C24.8575 93.9874 23.9757 117.395 33.4482 125.341ZM44.3632 43.8108L49.6192 44.8188L49.6192 86.7228L44.0752 87.5148L44.0752 92.2668L55.7392 92.2668C56.5552 92.2668 58.3552 92.3628 61.1392 92.5548C64.1152 92.7468 66.3472 92.8428 67.8352 92.8428C73.3072 92.8428 78.0592 91.5948 82.0912 89.0988C86.1232 86.5548 89.2192 83.0748 91.3792 78.6588C93.5392 74.2428 94.6192 69.2268 94.6192 63.6108C94.6192 55.4508 92.4112 49.1868 87.9952 44.8188C83.5792 40.4508 77.0032 38.2668 68.2672 38.2668C67.2592 38.2668 66.1072 38.2908 64.8112 38.3388C63.5632 38.3868 62.6272 38.4348 62.0032 38.4828C59.3152 38.6748 57.1792 38.7708 55.5952 38.7708L44.3632 38.7708L44.3632 43.8108ZM67.5472 87.5868C65.3872 87.6828 63.4672 87.4668 61.7872 86.9388L61.7872 43.8108C62.0752 43.7628 62.6752 43.6668 63.5872 43.5228C64.4992 43.3788 65.5312 43.3068 66.6832 43.3068C71.6752 43.3068 75.3232 45.2748 77.6272 49.2108C79.9792 53.0988 81.1552 58.4988 81.1552 65.4108C81.1552 72.8988 79.9552 78.4668 77.5552 82.1148C75.2032 85.7148 71.8672 87.5388 67.5472 87.5868Z" fill="#F683AC"/>
</svg>
