<svg width="276" height="177" viewBox="0 0 276 177" fill="none" xmlns="http://www.w3.org/2000/svg">
<path d="M43.7769 101.865L32.139 104.886L10.2571 70.3938L9.91685 70.4821L10.1657 72.5604C10.8131 77.5742 11.212 81.8171 11.3625 85.289L12.5043 109.981L3.14639 112.41L0.749733 59.9309L12.8981 56.7781L33.9794 90.4246L34.2516 90.3539C33.7327 85.0889 33.3706 80.5217 33.1655 76.6522L32.0563 51.806L41.3803 49.3862L43.7769 101.865ZM66.0085 62.6078C64.0122 63.1259 62.3647 64.522 61.0662 66.7961C59.7678 69.0702 59.1848 71.5824 59.3174 74.3325L60.8487 73.9351C64.3651 73.0225 66.9574 71.7686 68.6258 70.1734C70.311 68.5495 70.9092 66.7961 70.4206 64.9132C69.8612 62.758 68.3906 61.9896 66.0085 62.6078ZM68.747 96.1114C63.983 97.3478 59.9525 97.0257 56.6556 95.1451C53.3588 93.2646 51.1039 89.9877 49.891 85.3144C48.6723 80.6184 48.4926 76.1007 49.352 71.7613C50.2281 67.3933 52.0035 63.7847 54.6783 60.9355C57.3471 58.0636 60.7006 56.1037 64.7386 55.0557C68.7541 54.0136 72.1261 54.1312 74.8548 55.4086C77.5776 56.6633 79.357 58.9013 80.1931 62.1227C81.2941 66.365 80.2506 70.1347 77.0626 73.4319C73.8686 76.7064 68.7554 79.2563 61.7227 81.0814L59.9873 81.5319L60.1047 82.2641L60.2813 82.9447C60.8171 85.0091 61.8195 86.4924 63.2885 87.3945C64.7743 88.268 66.6062 88.4221 68.784 87.8569C70.7577 87.3447 72.4939 86.664 73.9928 85.815C75.4916 84.9659 77.2454 83.6996 79.254 82.016L81.2588 89.7406C77.8631 92.7043 73.6926 94.8279 68.747 96.1114ZM139.289 77.0772L127.788 80.0623L115.379 61.7806L111.744 65.2666L112.645 83.9923L102.266 86.6859L99.8692 34.2067L110.282 31.5042L111.277 56.8887L114.739 48.399L124.404 27.8392L136.688 24.651L122.657 53.7172L139.289 77.0772ZM153.71 74.061C150.376 74.9265 147.432 74.4071 144.88 72.5028C142.344 70.57 140.511 67.4257 139.381 63.07C138.215 58.5782 137.922 54.0899 138.501 49.6052C139.075 45.0979 140.4 41.3881 142.477 38.476C144.549 35.5413 147.173 33.6618 150.349 32.8375C152.549 32.2664 154.567 32.2512 156.402 32.7919C158.26 33.3266 159.867 34.3867 161.223 35.9719L161.495 35.9013L162.172 30.5317L170.067 28.4829L171.841 68.6291L164.185 70.6161L163.381 65.5583L163.108 65.629C161.04 70.1611 157.907 72.9718 153.71 74.061ZM155.58 64.7498C157.145 64.3436 158.457 63.1921 159.514 61.2953C160.571 59.3985 161.207 57.0423 161.42 54.2264C161.628 51.3879 161.305 48.324 160.451 45.0345C160.033 43.4238 159.247 42.2115 158.091 41.3975C156.952 40.555 155.668 40.3192 154.239 40.6902C152.696 41.0905 151.434 42.2899 150.451 44.2883C149.491 46.2809 148.939 48.7245 148.794 51.6193C148.672 54.5082 148.953 57.2684 149.636 59.9C150.154 61.8964 150.917 63.2965 151.924 64.1004C152.955 64.8984 154.173 65.1149 155.58 64.7498ZM191.673 64.2086C188.338 65.0741 185.392 64.5433 182.833 62.6164C180.298 60.6836 178.462 57.528 177.326 53.1496C176.172 48.7031 175.876 44.2518 176.439 39.7957C177.018 35.311 178.344 31.6013 180.415 28.6665C182.48 25.7091 185.113 23.8153 188.311 22.9851C190.172 22.5023 191.88 22.507 193.436 22.999C195.015 23.4851 196.671 24.593 198.403 26.3227L198.675 26.252L198.496 25.2816C197.984 22.7508 197.694 20.4653 197.625 18.4251L197.049 5.57158L207.292 2.91332L209.804 58.7767L202.011 60.7991L201.343 55.7059L201.071 55.7766C199.973 58.1683 198.653 60.0361 197.114 61.3801C195.596 62.7182 193.783 63.661 191.673 64.2086ZM193.815 54.8268C195.403 54.4147 196.68 53.3203 197.648 51.5437C198.61 49.7445 199.162 47.3008 199.305 44.2127C199.47 41.1188 199.209 38.2447 198.52 35.5905C198.049 33.7756 197.241 32.4356 196.096 31.5704C194.974 30.6993 193.676 30.4551 192.202 30.8378C190.659 31.2381 189.396 32.4375 188.414 34.4359C187.454 36.4285 186.901 38.8721 186.757 41.7669C186.635 44.6558 186.915 47.4161 187.598 50.0476C188.635 54.0404 190.707 55.6334 193.815 54.8268ZM229.636 54.3562C226.301 55.2217 223.357 54.7023 220.805 52.7981C218.269 50.8652 216.436 47.7209 215.306 43.3652C214.14 38.8734 213.847 34.3852 214.426 29.9005C215 25.3931 216.326 21.6834 218.403 18.7713C220.474 15.8365 223.098 13.957 226.274 13.1327C228.474 12.5616 230.492 12.5464 232.328 13.0871C234.186 13.6219 235.793 14.6819 237.148 16.2672L237.421 16.1965L238.097 10.827L245.992 8.7781L247.767 48.9243L240.11 50.9114L239.306 45.8536L239.034 45.9242C236.965 50.4563 233.833 53.267 229.636 54.3562ZM231.505 45.0451C233.07 44.6388 234.382 43.4873 235.439 41.5906C236.497 39.6938 237.132 37.3375 237.346 34.5217C237.553 31.6832 237.23 28.6192 236.377 25.3297C235.959 23.719 235.172 22.5067 234.016 21.6928C232.877 20.8503 231.593 20.6145 230.164 20.9854C228.622 21.3858 227.359 22.5851 226.376 24.5836C225.416 26.5761 224.864 29.0198 224.72 31.9145C224.598 34.8034 224.878 37.5637 225.561 40.1952C226.079 42.1916 226.842 43.5917 227.85 44.3956C228.88 45.1936 230.099 45.4101 231.505 45.0451ZM272.199 1.21381C273.538 0.866437 274.659 0.708603 275.563 0.740306L275.879 11.1916C274.763 11.0935 273.582 11.2064 272.334 11.5303C269.703 12.2132 267.66 13.8573 266.205 16.4625C264.767 19.0392 264.132 22.3761 264.299 26.4732L265.108 44.4238L254.865 47.0821L253.056 6.94468L260.883 4.91345L261.997 12.1429L262.371 12.0457C264.318 6.01965 267.594 2.409 272.199 1.21381ZM32.0776 143.555L39.5762 120.107L51.2141 117.087L38.159 153.273L39.0464 173.346L28.7356 176.022L27.8483 155.949L11.8426 127.305L22.4597 124.549L32.0776 143.555ZM66.5687 166.929C63.2338 167.795 60.2902 167.276 57.7378 165.371C55.2022 163.438 53.3692 160.294 52.2388 155.938C51.073 151.447 50.7799 146.958 51.3594 142.474C51.933 137.966 53.2585 134.257 55.3357 131.345C57.4071 128.41 60.0308 126.53 63.2068 125.706C65.4074 125.135 67.4253 125.12 69.2606 125.66C71.1186 126.195 72.7254 127.255 74.0812 128.84L74.3534 128.77L75.0302 123.4L82.9249 121.351L84.6996 161.498L77.0431 163.485L76.2389 158.427L75.9667 158.497C73.8982 163.03 70.7656 165.84 66.5687 166.929ZM68.438 157.618C70.0034 157.212 71.3147 156.061 72.3722 154.164C73.4296 152.267 74.0651 149.911 74.2786 147.095C74.4863 144.256 74.1633 141.192 73.3096 137.903C72.8916 136.292 72.1048 135.08 70.9492 134.266C69.8104 133.424 68.5264 133.188 67.0972 133.559C65.5545 133.959 64.2919 135.158 63.3093 137.157C62.3494 139.149 61.7971 141.593 61.6524 144.488C61.5305 147.377 61.811 150.137 62.494 152.768C63.0121 154.765 63.775 156.165 64.7827 156.969C65.813 157.767 67.0315 157.983 68.438 157.618ZM115.49 140.104C116.597 144.369 116.03 148.015 113.789 151.042C111.564 154.041 107.934 156.194 102.898 157.501C100.471 158.131 98.3052 158.511 96.4021 158.642C94.5215 158.767 92.6956 158.635 90.9242 158.248L88.734 149.808C92.8256 150.926 96.7089 151.008 100.384 150.054C102.199 149.583 103.591 148.834 104.559 147.808C105.522 146.759 105.838 145.599 105.509 144.329C105.256 143.354 104.609 142.589 103.57 142.036C102.53 141.482 100.791 140.892 98.3523 140.266C95.207 139.436 92.8926 138.402 91.4092 137.165C89.9199 135.905 88.9044 134.231 88.3628 132.144C87.3619 128.287 87.8354 124.98 89.7833 122.223C91.748 119.437 95.0556 117.44 99.7063 116.233C104.266 115.05 108.663 115.059 112.898 116.26L111.428 124.451C107.757 123.369 104.583 123.176 101.906 123.871C100.613 124.207 99.6462 124.772 99.0053 125.568C98.3585 126.341 98.1617 127.216 98.4148 128.191C98.6444 129.076 99.2105 129.764 100.113 130.257C101.01 130.726 102.589 131.212 104.85 131.715C108.011 132.42 110.434 133.45 112.117 134.805C113.801 136.16 114.925 137.926 115.49 140.104ZM111.973 163.5C112.656 166.131 112.242 168.406 110.73 170.324C109.218 172.242 106.749 173.645 103.323 174.534C101.372 175.04 99.5804 175.227 97.9477 175.094L96.464 169.377C98.0286 169.528 99.5142 169.421 100.921 169.056C103.235 168.455 104.15 167.225 103.668 165.365C103.467 164.593 102.948 164.038 102.109 163.699C101.276 163.382 99.9374 163.354 98.0923 163.615L99.999 157.527L106.294 155.893L105.603 158.688C109.09 158.969 111.214 160.573 111.973 163.5ZM131.564 149.335L121.322 151.993L118.809 96.1298L129.052 93.4715L131.564 149.335ZM148.769 144.87L138.527 147.528L136.718 107.391L146.961 104.732L148.769 144.87ZM179.424 123.512C180.531 127.777 179.963 131.423 177.722 134.45C175.498 137.449 171.868 139.601 166.831 140.908C164.404 141.538 162.239 141.919 160.336 142.049C158.455 142.174 156.629 142.043 154.858 141.655L152.668 133.216C156.759 134.333 160.642 134.415 164.318 133.461C166.132 132.99 167.524 132.242 168.493 131.215C169.455 130.167 169.772 129.007 169.442 127.736C169.189 126.761 168.543 125.996 167.503 125.443C166.464 124.89 164.724 124.3 162.286 123.673C159.14 122.843 156.826 121.809 155.343 120.572C153.853 119.312 152.838 117.638 152.296 115.551C151.295 111.695 151.769 108.388 153.717 105.63C155.682 102.844 158.989 100.848 163.64 99.6408C168.2 98.4574 172.597 98.4664 176.831 99.6677L175.361 107.858C171.691 106.777 168.517 106.584 165.84 107.278C164.547 107.614 163.58 108.18 162.939 108.976C162.292 109.749 162.095 110.623 162.348 111.599C162.578 112.483 163.144 113.172 164.047 113.664C164.943 114.134 166.522 114.62 168.784 115.122C171.945 115.827 174.367 116.857 176.051 118.212C177.734 119.567 178.858 121.334 179.424 123.512ZM195.498 132.742L185.255 135.401L183.446 95.2632L193.689 92.6049L195.498 132.742ZM234.447 122.634L224.205 125.292L223.1 101.861C223.062 100.224 222.893 98.8275 222.593 97.6706C221.869 94.8802 220.282 93.8029 217.832 94.4388C215.745 94.9805 214.186 96.7652 213.156 99.793C212.125 102.821 211.723 106.775 211.949 111.656L212.703 128.277L202.46 130.935L200.651 90.798L208.478 88.7668L209.591 95.9962L209.898 95.9167C211.868 89.8848 215.189 86.2623 219.862 85.0495C222.993 84.237 225.656 84.5628 227.852 86.0268C230.065 87.4623 231.628 89.9382 232.54 93.4545C232.97 95.1106 233.239 97.22 233.347 99.7828L234.447 122.634ZM244.408 102.433C244.161 98.9618 244.425 96.012 245.199 93.5834C245.967 91.1321 247.446 88.666 249.635 86.1849C251.954 83.5492 253.361 81.6465 253.856 80.4767C254.374 79.301 254.477 78.112 254.165 76.9097C253.465 74.21 251.606 73.2518 248.588 74.0348C247.454 74.3292 246.288 74.8257 245.089 75.5242C243.912 76.2169 241.88 77.7614 238.991 80.1578L233.908 73.4499C238.39 69.26 243.07 66.5321 247.947 65.2663C251.963 64.2242 255.398 64.3981 258.252 65.788C261.101 67.1553 262.988 69.6197 263.912 73.1814C264.401 75.0644 264.514 76.8512 264.25 78.5419C264.004 80.204 263.436 81.8406 262.546 83.4516C261.651 85.04 259.928 87.2667 257.379 90.1318C255.617 92.1145 254.472 93.7676 253.944 95.0912C253.41 96.3921 253.158 98.0798 253.188 100.154L244.408 102.433ZM244.477 115.854C243.942 113.789 244.142 111.994 245.077 110.468C246.007 108.919 247.55 107.865 249.705 107.306C251.247 106.905 252.584 107.018 253.715 107.645C254.869 108.266 255.649 109.359 256.056 110.924C256.568 112.898 256.359 114.659 255.429 116.208C254.499 117.757 253.036 118.79 251.04 119.308C249.361 119.744 247.945 119.651 246.791 119.031C245.637 118.41 244.866 117.351 244.477 115.854Z" fill="#562F38"/>
</svg>
