<svg width="112" height="32" viewBox="0 0 112 32" fill="none" xmlns="http://www.w3.org/2000/svg">
<g clip-path="url(#clip0)">
<g clip-path="url(#clip1)">
<path d="M16.4523 28.0987C11.4319 30.8588 5.63853 33.0182 2.89836 30.7399C0.148406 28.4878 0.461493 21.7719 0.701191 15.6533C0.962907 9.54252 1.17325 4.03684 3.61489 1.63809C6.06631 -0.786874 10.7808 -0.123299 15.2434 0.480546C19.7157 1.05818 23.9238 1.54206 26.3141 4.55701C28.7142 7.54575 29.2867 13.0918 27.4812 17.5268C25.6659 21.9882 21.4505 25.3307 16.4523 28.0987Z" fill="#F683AC"/>
</g>
<path d="M9.81308 7.89725L8.25366 7.60184V6.12477H11.5861C12.0561 6.12477 12.6898 6.09664 13.4873 6.04037C13.6725 6.0263 13.9502 6.01223 14.3205 5.99817C14.705 5.9841 15.0468 5.97706 15.3458 5.97706C17.9377 5.97706 19.8888 6.61713 21.199 7.89725C22.5092 9.17737 23.1643 11.0132 23.1643 13.4046C23.1643 15.0505 22.8439 16.5205 22.203 17.8147C21.5622 19.1089 20.6436 20.1287 19.4473 20.8743C18.2511 21.6058 16.8412 21.9716 15.2177 21.9716C14.7762 21.9716 14.114 21.9434 13.231 21.8872C12.405 21.8309 11.871 21.8028 11.6288 21.8028H8.16821V20.4101L9.81308 20.178V7.89725ZM13.4233 20.2413C13.9217 20.396 14.4914 20.4593 15.1322 20.4312C16.4139 20.4171 17.4037 19.8826 18.1015 18.8275C18.8136 17.7584 19.1696 16.1266 19.1696 13.9321C19.1696 11.9064 18.8207 10.3239 18.1229 9.1844C17.4393 8.03089 16.357 7.45413 14.8759 7.45413C14.5341 7.45413 14.2279 7.47523 13.9573 7.51743C13.6867 7.55963 13.5087 7.58777 13.4233 7.60184V20.2413Z" fill="#212429"/>
<path d="M30.1432 22.0349C28.1921 22.0349 26.7466 21.4933 25.8067 20.4101C24.8667 19.3128 24.3968 17.8217 24.3968 15.9367C24.3968 14.6566 24.6389 13.5523 25.1231 12.6239C25.6073 11.6954 26.2838 10.992 27.1525 10.5138C28.0354 10.0214 29.0679 9.77523 30.25 9.77523C31.7453 9.77523 32.8846 10.148 33.6679 10.8936C34.4654 11.6391 34.8784 12.6942 34.9069 14.0587C34.9069 14.959 34.8428 15.6835 34.7146 16.2321H28.0283C28.0995 17.4278 28.3915 18.3422 28.9042 18.9752C29.4311 19.5942 30.1645 19.9037 31.1044 19.9037C31.6314 19.9037 32.1797 19.8193 32.7493 19.6505C33.3332 19.4676 33.8032 19.2636 34.1592 19.0385L34.7573 20.3257C34.3871 20.7336 33.7533 21.1205 32.8561 21.4862C31.9732 21.852 31.0688 22.0349 30.1432 22.0349ZM31.5103 14.8395L31.5317 13.9532C31.5317 13.067 31.4106 12.3917 31.1685 11.9275C30.9264 11.4633 30.5134 11.2312 29.9295 11.2312C29.3314 11.2312 28.8686 11.4914 28.541 12.0119C28.2135 12.5183 28.0354 13.4609 28.007 14.8395H31.5103Z" fill="#212429"/>
<path d="M39.1304 20.0514C39.23 20.2061 39.4579 20.3468 39.8139 20.4734C40.1842 20.6 40.5545 20.6633 40.9248 20.6633C41.5087 20.6633 41.9501 20.5437 42.2492 20.3046C42.5625 20.0514 42.7192 19.7278 42.7192 19.3339C42.7192 18.9119 42.5198 18.5673 42.121 18.3C41.7223 18.0187 41.0672 17.681 40.1557 17.2872L39.344 16.9284C38.4183 16.5205 37.7205 16.0281 37.2505 15.4514C36.7948 14.8606 36.5669 14.115 36.5669 13.2147C36.5669 12.5676 36.7592 11.9908 37.1437 11.4844C37.5282 10.9639 38.0836 10.556 38.8099 10.2606C39.5362 9.96514 40.3907 9.81743 41.3734 9.81743C42.0569 9.81743 42.648 9.85963 43.1464 9.94404C43.6449 10.0284 44.1504 10.1339 44.6631 10.2606C45.0049 10.359 45.2612 10.4153 45.4321 10.4294V13.2991H43.5309L42.9755 11.6743C42.9043 11.5477 42.7334 11.4352 42.4628 11.3367C42.1922 11.2242 41.8861 11.1679 41.5443 11.1679C41.0031 11.1679 40.5758 11.2875 40.2625 11.5266C39.9492 11.7517 39.7926 12.0612 39.7926 12.455C39.7926 12.9052 39.9706 13.2639 40.3266 13.5312C40.6827 13.7844 41.2523 14.0869 42.0356 14.4385L42.4842 14.6284C43.6377 15.1067 44.5421 15.6272 45.1972 16.1899C45.8523 16.7385 46.1798 17.4982 46.1798 18.4688C46.1798 19.5098 45.7597 20.3679 44.9194 21.0431C44.0792 21.7043 42.8402 22.0349 41.2025 22.0349C40.4477 22.0349 39.7783 21.9716 39.1944 21.845C38.6105 21.7324 37.9697 21.5777 37.2719 21.3807L36.5669 21.1908V18.3844H38.5963L39.1304 20.0514Z" fill="#212429"/>
<path d="M50.3522 8.25596C49.7968 8.25596 49.3482 8.09419 49.0064 7.77064C48.6646 7.4471 48.4937 7.03211 48.4937 6.52569C48.4937 5.93486 48.6789 5.44954 49.0491 5.06973C49.4337 4.68991 49.9463 4.5 50.5872 4.5C51.2281 4.5 51.7194 4.66177 52.0612 4.98532C52.403 5.30887 52.5739 5.72385 52.5739 6.23028C52.5739 6.83517 52.3816 7.32752 51.9971 7.70734C51.6126 8.07309 51.0714 8.25596 50.3736 8.25596H50.3522ZM49.0491 12.2862L47.6179 11.8853V10.3028L51.8903 9.79633H51.933L52.5952 10.2395V20.2202L53.8769 20.4101V21.8028H47.7247V20.4101L49.0491 20.2202V12.2862Z" fill="#212429"/>
<path d="M60.6368 27.5C58.6715 27.5 57.2474 27.1976 56.3644 26.5927C55.4957 25.9878 55.0614 25.1789 55.0614 24.1661C55.0614 23.6034 55.2536 23.0688 55.6381 22.5624C56.0227 22.056 56.5069 21.6761 57.0908 21.4229C56.4214 21.0431 56.0867 20.4382 56.0867 19.6083C56.0867 19.1581 56.2434 18.722 56.5567 18.3C56.87 17.8639 57.2901 17.5333 57.8171 17.3083C56.2363 16.7315 55.4459 15.5358 55.4459 13.7211C55.4459 12.9193 55.688 12.2229 56.1722 11.6321C56.6564 11.0272 57.3115 10.57 58.1375 10.2606C58.9635 9.937 59.8749 9.77523 60.8718 9.77523C62.652 9.77523 63.9551 10.0988 64.7811 10.7459C64.9804 10.5067 65.2937 10.2817 65.721 10.0706C66.1482 9.84557 66.5897 9.73303 67.0454 9.73303H67.8145V12.3073H65.6996C65.842 12.7012 65.9132 13.1021 65.9132 13.5101C65.9132 14.8043 65.4504 15.8312 64.5247 16.5908C63.599 17.3505 62.2817 17.7303 60.5727 17.7303C59.8749 17.7303 59.2982 17.681 58.8424 17.5826C58.757 17.7514 58.6858 17.9272 58.6288 18.1101C58.5861 18.293 58.5647 18.4407 58.5647 18.5532C58.5647 18.9893 58.7285 19.2917 59.0561 19.4606C59.3836 19.6153 59.9817 19.6927 60.8505 19.6927H63.0507C66.0557 19.6927 67.5581 20.7547 67.5581 22.8789C67.5581 23.8073 67.2306 24.6232 66.5755 25.3266C65.9204 26.03 65.0588 26.5645 63.9907 26.9303C62.9368 27.3101 61.8189 27.5 60.6368 27.5ZM60.7864 16.2954C61.3845 16.2954 61.8117 16.0774 62.0681 15.6413C62.3387 15.1911 62.474 14.5511 62.474 13.7211C62.474 12.8208 62.3387 12.1667 62.0681 11.7587C61.7975 11.3508 61.3631 11.1468 60.765 11.1468C59.5545 11.1468 58.9492 11.9768 58.9492 13.6367C58.9492 15.4092 59.5616 16.2954 60.7864 16.2954ZM61.0427 25.9174C61.826 25.9174 62.4953 25.7135 63.0507 25.3055C63.6061 24.8976 63.8839 24.3208 63.8839 23.5752C63.8839 22.9844 63.7343 22.5624 63.4353 22.3092C63.1362 22.07 62.6093 21.9505 61.8545 21.9505H59.6755C59.4477 21.9505 59.1913 21.9364 58.9065 21.9083C58.6359 22.3443 58.5006 22.8859 58.5006 23.533C58.5006 25.1226 59.348 25.9174 61.0427 25.9174Z" fill="#212429"/>
<path d="M70.0331 12.2862L68.7727 11.9064V10.2606L72.6606 9.79633H72.7247L73.2801 10.2395V11.0202L73.2587 11.5055C73.7572 11.0413 74.3909 10.6474 75.16 10.3239C75.929 10.0003 76.7336 9.83853 77.5739 9.83853C78.4283 9.83853 79.0977 9.99327 79.5819 10.3028C80.0803 10.5982 80.4364 11.0765 80.65 11.7376C80.8778 12.3988 80.9918 13.2991 80.9918 14.4385V20.2202L82.188 20.389V21.8028H76.3776V20.4101L77.4243 20.2202V14.4596C77.4243 13.7844 77.3745 13.2639 77.2748 12.8982C77.1893 12.5183 77.0327 12.244 76.8048 12.0752C76.577 11.9064 76.2494 11.822 75.8222 11.822C75.1671 11.822 74.4265 12.1245 73.6005 12.7294V20.2202L74.7754 20.4101V21.8028H68.8582V20.4101L70.0331 20.2202V12.2862Z" fill="#212429"/>
<path d="M86.2128 8.25596C85.6574 8.25596 85.2088 8.09419 84.867 7.77064C84.5252 7.4471 84.3543 7.03211 84.3543 6.52569C84.3543 5.93486 84.5394 5.44954 84.9097 5.06973C85.2942 4.68991 85.8069 4.5 86.4478 4.5C87.0886 4.5 87.5799 4.66177 87.9217 4.98532C88.2635 5.30887 88.4344 5.72385 88.4344 6.23028C88.4344 6.83517 88.2422 7.32752 87.8576 7.70734C87.4731 8.07309 86.932 8.25596 86.2341 8.25596H86.2128ZM84.9097 12.2862L83.4784 11.8853V10.3028L87.7508 9.79633H87.7936L88.4558 10.2395V20.2202L89.7375 20.4101V21.8028H83.5852V20.4101L84.9097 20.2202V12.2862Z" fill="#212429"/>
<path d="M96.7324 22.0349C94.7813 22.0349 93.3358 21.4933 92.3959 20.4101C91.456 19.3128 90.986 17.8217 90.986 15.9367C90.986 14.6566 91.2281 13.5523 91.7123 12.6239C92.1965 11.6954 92.873 10.992 93.7417 10.5138C94.6246 10.0214 95.6571 9.77523 96.8392 9.77523C98.3345 9.77523 99.4738 10.148 100.257 10.8936C101.055 11.6391 101.468 12.6942 101.496 14.0587C101.496 14.959 101.432 15.6835 101.304 16.2321H94.6175C94.6887 17.4278 94.9807 18.3422 95.4934 18.9752C96.0203 19.5942 96.7537 19.9037 97.6937 19.9037C98.2206 19.9037 98.7689 19.8193 99.3385 19.6505C99.9224 19.4676 100.392 19.2636 100.748 19.0385L101.347 20.3257C100.976 20.7336 100.343 21.1205 99.4453 21.4862C98.5624 21.852 97.658 22.0349 96.7324 22.0349ZM98.0995 14.8395L98.1209 13.9532C98.1209 13.067 97.9998 12.3917 97.7577 11.9275C97.5156 11.4633 97.1026 11.2312 96.5187 11.2312C95.9206 11.2312 95.4578 11.4914 95.1302 12.0119C94.8027 12.5183 94.6246 13.4609 94.5962 14.8395H98.0995Z" fill="#212429"/>
<path d="M103.071 20.4101L104.374 20.2202V12.2862L103.113 11.9064V10.2606L106.659 9.79633H106.724L107.322 10.2395V10.7459L107.258 12.4972H107.322C107.421 12.1737 107.649 11.8009 108.005 11.3789C108.361 10.9428 108.81 10.57 109.351 10.2606C109.907 9.937 110.505 9.77523 111.146 9.77523C111.516 9.77523 111.801 9.82446 112 9.92294V13.5945C111.772 13.4257 111.523 13.292 111.252 13.1936C110.996 13.0951 110.661 13.0459 110.248 13.0459C109.736 13.0459 109.273 13.1162 108.86 13.2569C108.447 13.3835 108.119 13.5312 107.877 13.7V20.2202L110.227 20.4312V21.8028H103.071V20.4101Z" fill="#212429"/>
</g>
<defs>
<clipPath id="clip0">
<rect width="112" height="32" fill="white"/>
</clipPath>
<clipPath id="clip1">
<rect width="30" height="32" fill="white"/>
</clipPath>
</defs>
</svg>
