<svg width="35" height="44" viewBox="0 0 35 44" fill="none" xmlns="http://www.w3.org/2000/svg">
<path d="M33.9797 5.52656L18.0516 0.0984374C17.8594 0.0328124 17.6016 0 17.3438 0C17.0859 0 16.8281 0.0328124 16.6359 0.0984374L0.707813 5.52656C0.31875 5.65781 0 6.10781 0 6.52031V29.1328C0 29.5453 0.267188 30.0891 0.590625 30.3469L16.7484 42.9375C16.9125 43.0641 17.1234 43.1297 17.3391 43.1297C17.5547 43.1297 17.7703 43.0641 17.9297 42.9375L34.0875 30.3469C34.4109 30.0937 34.6781 29.55 34.6781 29.1328V6.52031C34.6875 6.10781 34.3688 5.6625 33.9797 5.52656V5.52656ZM25.8984 13.5328L15.9328 27.2531C15.8628 27.349 15.7711 27.427 15.6652 27.4808C15.5593 27.5346 15.4422 27.5626 15.3234 27.5626C15.2047 27.5626 15.0876 27.5346 14.9817 27.4808C14.8758 27.427 14.7841 27.349 14.7141 27.2531L8.78906 19.0969C8.61094 18.8484 8.78906 18.5016 9.09375 18.5016H11.6813C11.9203 18.5016 12.15 18.6187 12.2906 18.8109L15.3234 22.9828L22.3969 13.2422C22.5375 13.05 22.7625 12.9328 23.0062 12.9328H25.5938C25.8984 12.9375 26.0766 13.2844 25.8984 13.5328V13.5328Z" fill="#212429"/>
</svg>
