<svg width="31" height="24" viewBox="0 0 31 24" fill="none" xmlns="http://www.w3.org/2000/svg">
<g clip-path="url(#clip0)">
<path d="M5.61283 23.8807V22.2922C5.61283 21.6832 5.24209 21.2861 4.60663 21.2861C4.28897 21.2861 3.94477 21.392 3.70645 21.7362C3.52121 21.445 3.25648 21.2861 2.85934 21.2861C2.59449 21.2861 2.32989 21.3655 2.11799 21.6567V21.3391H1.56201V23.8807H2.11799V22.4775C2.11799 22.0275 2.3563 21.8156 2.72704 21.8156C3.09753 21.8156 3.28302 22.0539 3.28302 22.4775V23.8807H3.839V22.4775C3.839 22.0275 4.1036 21.8156 4.4478 21.8156C4.81853 21.8156 5.00378 22.0539 5.00378 22.4775V23.8807H5.61283ZM13.8465 21.3391H12.9465V20.5713H12.3905V21.3391H11.8874V21.842H12.3904V23.007C12.3904 23.5895 12.6287 23.9336 13.2641 23.9336C13.5024 23.9336 13.767 23.8543 13.9525 23.7484L13.7936 23.2717C13.6347 23.3776 13.4495 23.4042 13.3171 23.4042C13.0523 23.4042 12.9465 23.2453 12.9465 22.9805V21.842H13.8465V21.3391ZM18.5592 21.286C18.2415 21.286 18.0297 21.445 17.8973 21.6567V21.3391H17.3413V23.8807H17.8973V22.451C17.8973 22.0275 18.0826 21.7892 18.4268 21.7892C18.5327 21.7892 18.6651 21.8157 18.771 21.8421L18.9298 21.3127C18.8239 21.2861 18.6651 21.2861 18.5592 21.2861V21.286ZM11.4373 21.5509C11.1725 21.3655 10.8019 21.2861 10.4047 21.2861C9.76941 21.2861 9.34585 21.6038 9.34585 22.1068C9.34585 22.5305 9.66352 22.7687 10.2195 22.8482L10.4842 22.8747C10.7755 22.9275 10.9343 23.007 10.9343 23.1394C10.9343 23.3247 10.7225 23.4571 10.3518 23.4571C9.98119 23.4571 9.68993 23.3247 9.50456 23.1924L9.23984 23.6159C9.5311 23.8277 9.92824 23.9336 10.3253 23.9336C11.0666 23.9336 11.4903 23.5895 11.4903 23.1129C11.4903 22.6628 11.1461 22.4245 10.6165 22.3451L10.3518 22.3186C10.1135 22.2921 9.92824 22.2393 9.92824 22.0804C9.92824 21.8951 10.1135 21.7892 10.4047 21.7892C10.7225 21.7892 11.0402 21.9215 11.199 22.0009L11.4373 21.5509ZM26.2106 21.2861C25.8928 21.2861 25.681 21.445 25.5486 21.6567V21.3391H24.9926V23.8807H25.5486V22.451C25.5486 22.0275 25.734 21.7892 26.0781 21.7892C26.1841 21.7892 26.3165 21.8157 26.4224 21.8421L26.5812 21.3127C26.4753 21.2861 26.3165 21.2861 26.2106 21.2861ZM19.1152 22.6099C19.1152 23.3776 19.6446 23.9336 20.4654 23.9336C20.8361 23.9336 21.1008 23.8543 21.3655 23.6425L21.1008 23.1924C20.889 23.3512 20.6772 23.4306 20.4389 23.4306C19.9888 23.4306 19.6712 23.1129 19.6712 22.6099C19.6712 22.1334 19.9888 21.8156 20.4389 21.7892C20.6772 21.7892 20.889 21.8685 21.1008 22.0275L21.3655 21.5774C21.1008 21.3655 20.8361 21.2861 20.4654 21.2861C19.6446 21.2861 19.1152 21.8421 19.1152 22.6099ZM24.2514 22.6099V21.3391H23.6954V21.6567C23.5101 21.4186 23.2453 21.2861 22.9011 21.2861C22.1863 21.2861 21.6304 21.8421 21.6304 22.6099C21.6304 23.3776 22.1863 23.9336 22.9011 23.9336C23.2718 23.9336 23.5366 23.8013 23.6954 23.563V23.8807H24.2514V22.6099ZM22.2127 22.6099C22.2127 22.1598 22.504 21.7892 22.9805 21.7892C23.4306 21.7892 23.7484 22.1334 23.7484 22.6099C23.7484 23.06 23.4306 23.4306 22.9805 23.4306C22.504 23.404 22.2127 23.06 22.2127 22.6099ZM15.5675 21.2861C14.8262 21.2861 14.2966 21.8156 14.2966 22.6099C14.2966 23.4042 14.8261 23.9336 15.5939 23.9336C15.9645 23.9336 16.3353 23.8277 16.6265 23.5895L16.3617 23.1924C16.1499 23.3512 15.8852 23.4571 15.6205 23.4571C15.2763 23.4571 14.9321 23.2983 14.8526 22.8481H16.7324V22.6364C16.759 21.8156 16.2823 21.2861 15.5674 21.2861H15.5675ZM15.5675 21.7626C15.9116 21.7626 16.15 21.9745 16.2029 22.3717H14.8791C14.9321 22.0275 15.1704 21.7626 15.5675 21.7626ZM29.3611 22.6099V20.333H28.8051V21.6567C28.6198 21.4186 28.3551 21.2861 28.0109 21.2861C27.296 21.2861 26.7401 21.8421 26.7401 22.6099C26.7401 23.3776 27.296 23.9336 28.0109 23.9336C28.3816 23.9336 28.6463 23.8013 28.8051 23.563V23.8807H29.3611V22.6099ZM27.3226 22.6099C27.3226 22.1598 27.6137 21.7892 28.0903 21.7892C28.5404 21.7892 28.8581 22.1334 28.8581 22.6099C28.8581 23.06 28.5404 23.4306 28.0903 23.4306C27.6137 23.404 27.3226 23.06 27.3226 22.6099ZM8.7368 22.6099V21.3391H8.18083V21.6567C7.99546 21.4186 7.73073 21.2861 7.38653 21.2861C6.67172 21.2861 6.11574 21.8421 6.11574 22.6099C6.11574 23.3776 6.67172 23.9336 7.38653 23.9336C7.75727 23.9336 8.02199 23.8013 8.18083 23.563V23.8807H8.7368V22.6099ZM6.67172 22.6099C6.67172 22.1598 6.96298 21.7892 7.43948 21.7892C7.88957 21.7892 8.20736 22.1334 8.20736 22.6099C8.20736 23.06 7.88957 23.4306 7.43948 23.4306C6.96298 23.404 6.67172 23.06 6.67172 22.6099Z" fill="white"/>
<path d="M11.252 2.03857H19.5917V17.0236H11.252V2.03857Z" fill="#FF5F00"/>
<path d="M11.7816 9.53114C11.7816 6.48651 13.2112 3.78597 15.4086 2.03855C13.7937 0.767759 11.7552 0 9.53126 0C4.26247 0 0 4.26247 0 9.53114C0 14.7997 4.26247 19.0623 9.53114 19.0623C11.7551 19.0623 13.7936 18.2945 15.4086 17.0236C13.2112 15.3027 11.7816 12.5758 11.7816 9.53114Z" fill="#EB001B"/>
<path d="M30.8437 9.53114C30.8437 14.7997 26.5812 19.0623 21.3125 19.0623C19.0886 19.0623 17.0501 18.2945 15.4351 17.0236C17.659 15.2763 19.0622 12.5758 19.0622 9.53114C19.0622 6.48651 17.6324 3.78597 15.4351 2.03855C17.0499 0.767759 19.0886 0 21.3125 0C26.5812 0 30.8438 4.28901 30.8438 9.53114H30.8437Z" fill="#F79E1B"/>
</g>
<defs>
<clipPath id="clip0">
<rect width="30.8744" height="24" fill="white"/>
</clipPath>
</defs>
</svg>
