<svg width="48" height="24" viewBox="0 0 48 24" fill="none" xmlns="http://www.w3.org/2000/svg">
<path d="M34.89 5.60163C33.7729 5.1978 32.5933 4.99418 31.4055 5.00013C27.57 5.00013 24.8595 6.93813 24.843 9.71163C24.8115 11.7501 26.7645 12.8991 28.2405 13.5861C29.757 14.2896 30.264 14.7276 30.2565 15.3516C30.249 16.3131 29.0445 16.7421 27.936 16.7421C26.3955 16.7421 25.56 16.5321 24.2715 15.9921L23.793 15.7656L23.247 18.9696C24.1845 19.3521 25.8645 19.6881 27.5985 19.7196C31.6845 19.7196 34.3485 17.7981 34.3785 14.8356C34.41 13.2111 33.3645 11.9781 31.137 10.9611C29.793 10.3056 28.9515 9.85863 28.9515 9.18663C28.9515 8.59263 29.67 7.96863 31.17 7.96863C32.1654 7.94369 33.1551 8.12711 34.0755 8.50713L34.443 8.67063L34.9815 5.58513L34.89 5.60163ZM44.8605 5.26563H41.8605C40.923 5.26563 40.227 5.51613 39.813 6.44613L34.047 19.5156H38.1255L38.9475 17.3751L43.923 17.3826C44.0475 17.8821 44.3985 19.5141 44.3985 19.5141H48L44.8605 5.26563ZM19.32 5.14863H23.2035L20.7735 19.4046H16.89L19.32 5.14113V5.14863ZM9.4455 12.9996L9.843 14.9841L13.647 5.26563H17.7645L11.6385 19.4916H7.539L4.179 7.44513C4.15326 7.34506 4.1074 7.25129 4.04421 7.16954C3.98103 7.08778 3.90184 7.01976 3.8115 6.96963C2.60457 6.34189 1.32424 5.86674 0 5.55513L0.0465 5.25663H6.312C7.1565 5.28813 7.8435 5.55513 8.0775 6.46113L9.4455 13.0071V12.9996ZM40.0545 14.4606L41.61 10.4691C41.586 10.5066 41.9295 9.64863 42.1245 9.10863L42.39 10.3341L43.29 14.4516H40.0545V14.4606Z" fill="white"/>
</svg>
